<!-- Created with Inkscape (http://www.inkscape.org/) -->
<svg width="190.5mm" height="197.11mm" version="1.1" viewBox="0 0 190.5 197.11" xmlns="http://www.w3.org/2000/svg" xmlns:cc="http://creativecommons.org/ns#" xmlns:dc="http://purl.org/dc/elements/1.1/" xmlns:rdf="http://www.w3.org/1999/02/22-rdf-syntax-ns#" xmlns:xlink="http://www.w3.org/1999/xlink">
 <metadata>
  <rdf:RDF>
   <cc:Work rdf:about="">
    <dc:format>image/svg+xml</dc:format>
    <dc:type rdf:resource="http://purl.org/dc/dcmitype/StillImage"/>
    <dc:title/>
   </cc:Work>
  </rdf:RDF>
 </metadata>
 <g transform="translate(-12.851 -48.764)">
  <image x="12.851" y="48.764" width="190.5" height="197.11" preserveAspectRatio="none" xlink:href="/home/roelof/work2/Teaching/jupylecture/images/catmissing.jpg"/>
  <image x="26.08" y="190.79" width="28.474" height="21.356" stroke-width="13.938" preserveAspectRatio="none" xlink:href="/home/roelof/work2/Teaching/jupylecture/images/cat.jpg"/>
  <g class="fragment fade-up">
   <path d="m54.555 190.65c0.96594-1.2727 2.661-2.3827 2.8978-3.8181 0.08781-0.53225-1.5345 0.12996-2.2679 0-0.34572-0.0613-0.43722-0.4229-0.75595-0.53587-0.4443-0.15748-3.4712 0.1458-3.7798 0-0.46882-0.22156-0.35753-0.78933-0.75595-1.0718-0.17818-0.12631-0.50397 0-0.75595 0-0.50397 0-1.0611 0.15977-1.5119 0-0.22538-0.0799 0.22538-0.45599 0-0.53587-0.68252-0.24192-3.6695 0.20467-4.5357 0-0.33807-0.0799-0.41788-0.45599-0.75595-0.53588-0.71716-0.16946-1.5119 0-2.2679 0h-5.2917-2.2679c-0.25198 0-0.57777-0.12631-0.75595 0s0.11269 0.37611 0 0.53588c-0.31874 0.45188-1.0667 0.67723-1.5119 1.0718-0.78707 0.69741-1.4808 1.4461-2.2679 2.1435-0.50397 0.44656-2.0159 1.2504-2.2679 1.6076-0.22538 0.31953 0.27955 0.7745 0 1.0718-1.8415 1.9581-1.1066-0.57457-2.2679 1.0718-0.22538 0.31953 0.15937 0.73283 0 1.0718-1.8252 3.8816 0.21794-0.84487-1.5119 1.6076-0.11269 0.15976 0.06112 0.36258 0 0.53587-0.19326 0.54801-0.62495 1.0505-0.75595 1.6076-0.12428 0.52859 0 1.0718 0 1.6076 0 0.17862 0.07969 0.36642 0 0.53587-0.17818 0.37892-0.57777 0.69283-0.75595 1.0718-0.07969 0.16946 0.07968 0.36641 0 0.53588-0.17818 0.37892-0.57777 0.69282-0.75595 1.0718-0.07968 0.16946 0.06112 0.36259 0 0.53587-0.19326 0.548-0.56269 1.0596-0.75595 1.6076-0.06111 0.1733 0.07968 0.36643 0 0.53588-0.17818 0.37893-0.4434 0.73942-0.75595 1.0718-0.19767 0.21019-0.64326 0.29622-0.75595 0.53587-0.34406 0.73169 0.34406 2.4836 0 3.2153-0.11269 0.23965-0.64326 0.29623-0.75595 0.53587-0.04772 0.1015-0.04772 3.1138 0 3.2153 0.11269 0.23965 0.64326 0.29622 0.75595 0.53588 0.15937 0.33891 0 0.7145 0 1.0718 0 0.17863-0.11269 0.37611 0 0.53588 0.5789 0.82073 1.3471 0.41906 2.2679 1.0718 0.17818 0.12631-0.22538 0.45599 0 0.53587 0.45076 0.15977 1.0338-0.11297 1.5119 0 0.33807 0.0799 0.43722 0.42291 0.75595 0.53588 1.2137 0.43019 2.5397 0.68107 3.7798 1.0718 1.0298 0.32443 1.9547 0.81913 3.0238 1.0718 0.41954 0.0991 5.1414 0 6.0476 0h8.3155c0.7097 0 3.3466 0.10235 3.7798 0 0.33807-0.0799 0.40651-0.48634 0.75595-0.53588 0.98836-0.14012 2.0159 0 3.0238 0h4.5357c0.25198 0 0.57777 0.12631 0.75595 0 0.39842-0.28243 0.35753-0.78932 0.75596-1.0718 0.35636-0.25261 1.0611 0.15977 1.5119 0 0.31874-0.11296 0.43722-0.4229 0.75595-0.53587 0.45076-0.15977 1.0611 0.15977 1.5119 0 0.31874-0.11297 0.50397-0.35726 0.75595-0.53588s0.59658-0.30993 0.75595-0.53587c0.11269-0.15977-0.11269-0.37611 0-0.53588 0.15937-0.22594 0.50397-0.35725 0.75595-0.53587 0.50397-0.35725 1.1166-0.65138 1.5119-1.0718 0.13978-0.14864-0.07968-0.36642 0-0.53588 2.1415-3.0361-0.28173 0.79883 0.75595-2.1435-0.45563-0.9699 1.2246-0.99663 1.5119-1.6076 0.31874-0.67783-0.31874-1.4657 0-2.1435 0.11269-0.23966 0.66952-0.29082 0.75595-0.53588 0-3.8008-0.53454-0.31391 0.75595-2.1435 0.11269-0.15977 0-0.35725 0-0.53588 0-0.35724-0.12223-0.72516 0-1.0718 0.13666-0.38749 0.57777-0.69283 0.75595-1.0718 0.0527-0.11207 0.0527-2.5673 0-2.6794-0.17818-0.37892-0.57777-0.69283-0.75595-1.0718-0.07968-0.16946 0.11269-0.37611 0-0.53588-0.15937-0.22594-0.64326-0.29622-0.75595-0.53588-0.15937-0.33891 0.15937-0.73282 0-1.0718-0.11269-0.23964-0.59658-0.30993-0.75595-0.53587-0.11269-0.15977 0.07968-0.36642 0-0.53588-0.17818-0.37893-0.50397-0.71449-0.75595-1.0718-0.25198-0.35725-0.4434-0.73942-0.75595-1.0718-0.19767-0.21019-0.64326-0.29623-0.75595-0.53588-0.15937-0.33892 0.35636-0.81913 0-1.0718-0.35636-0.25261-1.0611 0.15977-1.5119 0-0.22538-0.0799 0.11269-0.37611 0-0.53588-1.573-2.2302 0.05219 0.57287-1.5119-0.53588-0.39842-0.28242-0.35753-0.78931-0.75595-1.0718-0.17818-0.1263-0.61618 0.14863-0.75595 0-0.44201-0.46999-0.31394-1.1376-0.75595-1.6076-0.27955-0.29726-1.0611 0.15976-1.5119 0-2.6421-0.93647 1.4075-0.074-0.75595-1.6076-0.25199-0.17863-0.3996 0.53588-0.75596 0.53588-0.25198 0 0.17818-0.40957 0-0.53588-0.17818-0.12631-0.50397 0-0.75595 0-1.0079 0-2.022 0.0789-3.0238 0-7.2483-0.57091-1.8631-0.53588-4.5357-0.53588h-1.5119c-0.25199 0-0.94263-0.11998-0.75595 0 2.9548 1.8992 6.1316 3.6172 9.1974 5.4257" fill="none" stroke="#f70d0d" stroke-width="4.265"/>
   <text x="71.059372" y="217.01552" fill="#f70d0d" font-family="sans-serif" font-size="2.4694px" letter-spacing="0px" text-align="justify" word-spacing="0px" style="font-feature-settings:normal;font-variant-caps:normal;font-variant-ligatures:normal;font-variant-numeric:normal;line-height:1.25" xml:space="preserve"><tspan x="71.059372" y="217.01552"><tspan x="71.059372" y="217.01552" fill="#f70d0d" font-size="16.933px">here</tspan></tspan></text>
  </g>
 </g>
</svg>
